<svg width="111" height="110" viewBox="0 0 111 110" fill="none" xmlns="http://www.w3.org/2000/svg">
<circle cx="55.5" cy="55" r="55" fill="#0CC25F"/>
<g clip-path="url(#clip0_67003_8408)">
<path d="M47.9741 70.28L47.9718 70.2775L34.6071 56.0604C34.607 56.0603 34.607 56.0602 34.6069 56.0602C34.1982 55.6245 33.9792 55.0443 33.9982 54.4471C34.0172 53.8499 34.2727 53.2847 34.7084 52.8759C35.1441 52.467 35.7244 52.248 36.3216 52.267C36.9188 52.286 37.484 52.5414 37.8929 52.9771L37.8929 52.9772L49.2229 65.0497L49.5923 65.4433L49.9565 65.0449L73.084 39.7449L73.0948 39.733L73.1048 39.7206C73.2969 39.4814 73.5358 39.2841 73.8068 39.1407C74.0779 38.9972 74.3754 38.9107 74.6812 38.8864C74.9869 38.8622 75.2943 38.9007 75.5847 38.9996C75.875 39.0984 76.142 39.2556 76.3693 39.4615C76.5967 39.6673 76.7795 39.9175 76.9067 40.1965C77.0338 40.4756 77.1026 40.7778 77.1087 41.0844C77.1149 41.391 77.0583 41.6956 76.9424 41.9796C76.8265 42.2635 76.6538 42.5208 76.4348 42.7356L76.4251 42.7451L76.4159 42.7552L51.2809 70.2552L51.2788 70.2575C51.071 70.4878 50.8178 70.6727 50.5351 70.8005C50.2534 70.9278 49.9484 70.9958 49.6392 71L49.6166 71C49.6162 71 49.6159 71 49.6155 71C49.3074 70.9989 49.0027 70.9344 48.7205 70.8107C48.438 70.6869 48.1839 70.5062 47.9741 70.28Z" fill="white" stroke="white"/>
</g>
<defs>
<clipPath id="clip0_67003_8408">
<rect width="66" height="66" fill="white" transform="translate(22.5 22)"/>
</clipPath>
</defs>
</svg>
